<?xml version="1.0" encoding="UTF-8"?>
<svg version="1.1" xmlns="http://www.w3.org/2000/svg" width="225" height="225">
<path d="M0 0 C74.25 0 148.5 0 225 0 C225 74.25 225 148.5 225 225 C150.75 225 76.5 225 0 225 C0 150.75 0 76.5 0 0 Z " fill="#171616" transform="translate(0,0)"/>
<path d="M0 0 C0.77762695 -0.00978378 1.55525391 -0.01956757 2.35644531 -0.02964783 C4.93137916 -0.05957362 7.50626107 -0.08098157 10.08129883 -0.09985352 C10.96219995 -0.10642534 11.84310108 -0.11299717 12.75069618 -0.11976814 C17.41532409 -0.1523524 22.07992927 -0.17680329 26.74462891 -0.19628906 C30.5984841 -0.21408659 34.45160545 -0.24888261 38.30517578 -0.29882812 C42.96418139 -0.35913799 47.62250778 -0.3897796 52.28188515 -0.39946175 C54.05327572 -0.40800057 55.82464892 -0.42677993 57.59581566 -0.45620537 C74.32663355 -0.71915498 74.32663355 -0.71915498 80.05220032 4.62510681 C83.82631023 9.22750142 83.76895614 12.47680268 83.67114258 18.24780273 C83.21804393 22.43620247 82.27496821 24.20337604 79.35083008 27.20874023 C77.10083008 28.08374023 77.10083008 28.08374023 75.35083008 28.20874023 C75.35083008 28.86874023 75.35083008 29.52874023 75.35083008 30.20874023 C72.30470688 31.73180183 69.12647022 31.3736078 65.78344727 31.38574219 C65.00275375 31.39231339 64.22206024 31.39888458 63.41770935 31.40565491 C60.82770699 31.42540471 58.2377627 31.43705506 55.64770508 31.44702148 C54.76339058 31.45109701 53.87907608 31.45517254 52.96796417 31.45937157 C48.28618096 31.48024086 43.60442711 31.49453806 38.92260742 31.50390625 C34.08928348 31.51496417 29.25642076 31.54935433 24.42325974 31.58907795 C20.70515087 31.61524105 16.98715186 31.62359788 13.26895905 31.62718773 C11.48759094 31.63205558 9.70622781 31.64367527 7.92494965 31.66222572 C5.42819362 31.68660801 2.93262998 31.68565401 0.43579102 31.67871094 C-0.6632531 31.69792603 -0.6632531 31.69792603 -1.78450012 31.7175293 C-7.73463847 31.65738019 -11.0039287 29.47608986 -15.39916992 25.70874023 C-18.63569714 21.82490757 -19.02810677 18.36249294 -18.89916992 13.45483398 C-18.38090745 8.79856963 -16.52840995 6.02203726 -13.14916992 2.89624023 C-8.85215128 -0.00424735 -5.00362131 0.03974642 0 0 Z " fill="#EF3F5E" transform="translate(100.649169921875,96.791259765625)"/>
<path d="M0 0 C1.06483109 -0.00637985 2.12966217 -0.0127597 3.22676086 -0.01933289 C4.95952522 -0.02100212 4.95952522 -0.02100212 6.72729492 -0.02270508 C7.91119308 -0.02603348 9.09509125 -0.02936188 10.31486511 -0.03279114 C12.82416393 -0.0378621 15.3334695 -0.04019941 17.84277344 -0.04003906 C21.68134716 -0.04222131 25.51963163 -0.06036386 29.3581543 -0.0793457 C31.79370019 -0.08228042 34.22924745 -0.08426469 36.66479492 -0.08520508 C38.38845024 -0.09598335 38.38845024 -0.09598335 40.14692688 -0.10697937 C41.22121445 -0.10390274 42.29550201 -0.10082611 43.40234375 -0.09765625 C44.34451248 -0.09908127 45.28668121 -0.10050629 46.25740051 -0.10197449 C50.02458177 0.25111091 52.88685877 1.19932633 55.66088867 3.80151367 C56.15073242 4.40995117 56.64057617 5.01838867 57.14526367 5.64526367 C57.64541992 6.25370117 58.14557617 6.86213867 58.66088867 7.48901367 C61.39332412 11.15531947 61.34166051 14.72262838 60.89526367 19.14526367 C58.89229699 24.82033592 55.28176188 28.45201457 49.89526367 31.14526367 C48.16548956 31.25112244 46.43169667 31.29403918 44.69873047 31.30639648 C43.07145271 31.3208078 43.07145271 31.3208078 41.41130066 31.33551025 C40.23425064 31.33976013 39.05720062 31.34401001 37.84448242 31.34838867 C36.03534111 31.35693878 36.03534111 31.35693878 34.18965149 31.36566162 C31.63327922 31.37512213 29.07689469 31.38164976 26.52050781 31.38549805 C22.6094024 31.39519761 18.69882365 31.42620958 14.7878418 31.45776367 C12.30672513 31.46429411 9.8256047 31.46954442 7.34448242 31.47338867 C6.1735051 31.48573547 5.00252777 31.49808228 3.79606628 31.51080322 C2.70175797 31.50780212 1.60744965 31.50480103 0.47998047 31.50170898 C-0.47995316 31.50535461 -1.43988678 31.50900024 -2.4289093 31.51275635 C-8.01046355 30.74619697 -11.43862571 27.24332889 -14.79223633 23.02026367 C-16.63215394 18.98996794 -16.79806972 15.50556031 -16.10473633 11.14526367 C-12.58692387 4.23992811 -7.75214573 0.03144305 0 0 Z " fill="#3586FD" transform="translate(58.104736328125,55.854736328125)"/>
<path d="M0 0 C1.42374435 -0.00574036 1.42374435 -0.00574036 2.87625122 -0.01159668 C4.87828638 -0.01431083 6.88035729 -0.00698454 8.88232422 0.00976562 C11.92887487 0.0311347 14.97305465 0.00997151 18.01953125 -0.015625 C19.97135932 -0.01298071 21.92318593 -0.00785363 23.875 0 C24.77733368 -0.00809692 25.67966736 -0.01619385 26.60934448 -0.02453613 C32.49370204 0.06164122 37.21699286 1.04874709 42.0703125 4.53125 C44.98554819 7.92362943 46.29374408 11.11543867 46.5078125 15.59375 C45.88527242 21.19661071 44.29944452 24.66166988 40.0703125 28.34375 C36.55564146 30.90653097 34.16053122 31.64788936 29.92529297 31.73999023 C29.09367645 31.75928085 28.26205994 31.77857147 27.40524292 31.79844666 C23.59247495 31.85652335 19.77989031 31.90549845 15.96679688 31.9362793 C13.96304033 31.95781288 11.95937666 31.99186039 9.95605469 32.03881836 C7.05361301 32.10617764 4.15311549 32.13333918 1.25 32.15234375 C0.36529022 32.18017441 -0.51941956 32.20800507 -1.43093872 32.23667908 C-8.1193829 32.21486076 -13.10499869 30.28318331 -17.9296875 25.53125 C-20.33207853 20.54271777 -20.63031915 15.98741901 -19.9296875 10.53125 C-15.62198166 1.58447633 -9.15863884 -0.08181626 0 0 Z " fill="#F8CA27" transform="translate(85.9296875,137.46875)"/>
<path d="M0 0 C3.88651551 4.42630933 5.31223498 6.92600616 5.21484375 12.91015625 C4.63073925 18.59190001 1.1950109 22.41889313 -3 26 C-6.64530327 27.63410146 -11.07401564 27.54569667 -15 27 C-20.29112204 24.25268663 -24.09375244 20.71874267 -26 15 C-26.50201239 8.87544882 -26.09928344 5.87482354 -22 1 C-15.40351541 -5.10174824 -7.28292933 -5.66450059 0 0 Z " fill="#1AD588" transform="translate(155,60)"/>
<path d="M0 0 C1.06483109 -0.00630432 2.12966217 -0.01260864 3.22676086 -0.019104 C4.3819371 -0.01505554 5.53711334 -0.01100708 6.72729492 -0.00683594 C7.91119308 -0.00874939 9.09509125 -0.01066284 10.31486511 -0.01263428 C12.82417004 -0.01399755 15.33348199 -0.01029124 17.84277344 -0.00195312 C21.68139572 0.00871578 25.51954693 -0.00182925 29.3581543 -0.01464844 C31.79370221 -0.01332631 34.22924982 -0.01076282 36.66479492 -0.00683594 C37.81389847 -0.0108844 38.96300201 -0.01493286 40.14692688 -0.019104 C41.75835823 -0.00964752 41.75835823 -0.00964752 43.40234375 0 C44.34451248 0.00159119 45.28668121 0.00318237 46.25740051 0.00482178 C50.02189565 0.36725855 52.88780168 1.31373622 55.66088867 3.91503906 C56.3956543 4.82769531 56.3956543 4.82769531 57.14526367 5.75878906 C57.64541992 6.36722656 58.14557617 6.97566406 58.66088867 7.60253906 C61.38505794 11.25775352 61.37009983 14.8460875 60.89526367 19.25878906 C58.64526367 24.88378906 58.64526367 24.88378906 55.89526367 26.25878906 C55.23526367 24.27878906 54.57526367 22.29878906 53.89526367 20.25878906 C55.54526367 20.25878906 57.19526367 20.25878906 58.89526367 20.25878906 C58.89526367 19.59878906 58.89526367 18.93878906 58.89526367 18.25878906 C57.57526367 18.25878906 56.25526367 18.25878906 54.89526367 18.25878906 C55.22526367 14.95878906 55.55526367 11.65878906 55.89526367 8.25878906 C55.23526367 7.92878906 54.57526367 7.59878906 53.89526367 7.25878906 C53.23526367 5.60878906 52.57526367 3.95878906 51.89526367 2.25878906 C32.42526367 2.25878906 12.95526367 2.25878906 -7.10473633 2.25878906 C-4.53752469 -0.30842258 -3.5653714 0.00603669 0 0 Z " fill="#3876D6" transform="translate(58.104736328125,55.7412109375)"/>
<path d="M0 0 C2.66323623 0.47300721 5.30503415 0.73050342 8 1 C8 1.99 8 2.98 8 4 C22.52 4 37.04 4 52 4 C52 4.33 52 4.66 52 5 C44.25877171 5.07606971 36.51763984 5.12860834 28.77612305 5.16479492 C26.14262286 5.17988057 23.50914779 5.20035166 20.87573242 5.22631836 C17.09026896 5.26271019 13.30513773 5.2797289 9.51953125 5.29296875 C8.34227982 5.30845261 7.16502838 5.32393646 5.95210266 5.33988953 C4.30095711 5.34022942 4.30095711 5.34022942 2.61645508 5.34057617 C1.16750603 5.35056892 1.16750603 5.35056892 -0.31071472 5.36076355 C-3.54214304 4.92727233 -5.38177238 3.91846176 -8 2 C-8.66 1.01 -9.32 0.02 -10 -1 C-5.68995342 -1.97955604 -3.83563577 -2.0306307 0 0 Z " fill="#3E7BDD" transform="translate(56,82)"/>
<path d="M0 0 C14.85 0 29.7 0 45 0 C40.36676602 3.08882265 36.65263531 3.13580895 31.26953125 3.09765625 C30.51911057 3.0962413 29.76868988 3.09482635 28.99552917 3.09336853 C26.6011454 3.0877756 24.20685547 3.07522444 21.8125 3.0625 C20.18815239 3.05748408 18.56380332 3.05292134 16.93945312 3.04882812 C12.95959931 3.03780848 8.97981556 3.02054873 5 3 C5 2.67 5 2.34 5 2 C3.35 1.67 1.7 1.34 0 1 C0 0.67 0 0.34 0 0 Z " fill="#120E09" transform="translate(75,169)"/>
<path d="M0 0 C0.86462357 -0.00630432 1.72924713 -0.01260864 2.62007141 -0.019104 C4.02472908 -0.01303131 4.02472908 -0.01303131 5.45776367 -0.00683594 C6.41970139 -0.00874939 7.3816391 -0.01066284 8.37272644 -0.01263428 C10.41124736 -0.01399711 12.44977693 -0.01029385 14.48828125 -0.00195312 C17.60265765 0.00871006 20.71645259 -0.00182708 23.83081055 -0.01464844 C25.81062953 -0.01332617 27.79044814 -0.0107624 29.77026367 -0.00683594 C30.70062943 -0.0108844 31.63099518 -0.01493286 32.58955383 -0.019104 C37.09790428 0.01341257 40.72377493 0.11087737 44.81323242 2.25878906 C44.15323242 2.91878906 43.49323242 3.57878906 42.81323242 4.25878906 C42.15323242 3.92878906 41.49323242 3.59878906 40.81323242 3.25878906 C39.26710228 3.34530537 37.72413855 3.49881542 36.18823242 3.69628906 C35.3709668 3.798125 34.55370117 3.89996094 33.71166992 4.00488281 C33.08518555 4.08867187 32.45870117 4.17246094 31.81323242 4.25878906 C31.81323242 3.59878906 31.81323242 2.93878906 31.81323242 2.25878906 C19.27323242 2.25878906 6.73323242 2.25878906 -6.18676758 2.25878906 C-3.78958372 -0.13839479 -3.26653622 0.0068199 0 0 Z " fill="#E6C039" transform="translate(80.186767578125,137.7412109375)"/>
<path d="M0 0 C1.58325829 0.00212242 1.58325829 0.00212242 3.19850159 0.00428772 C6.55033268 0.00985903 9.90209554 0.02240623 13.25390625 0.03515625 C15.53450424 0.04017496 17.81510328 0.04473722 20.09570312 0.04882812 C25.66929388 0.05981905 31.24284519 0.07652849 36.81640625 0.09765625 C36.81640625 0.42765625 36.81640625 0.75765625 36.81640625 1.09765625 C35.14022217 1.11953003 35.14022217 1.11953003 33.43017578 1.1418457 C29.19160582 1.20084005 24.95351272 1.27804185 20.71533203 1.36010742 C18.89835482 1.39289041 17.08128712 1.42105873 15.26416016 1.4440918 C2.84121475 1.60565196 -8.99045586 2.68530458 -21.18359375 5.09765625 C-20.12109375 3.16015625 -20.12109375 3.16015625 -18.18359375 1.09765625 C-12.25467835 -0.37815498 -6.07877388 -0.03094684 0 0 Z " fill="#4285EF" transform="translate(67.18359375,56.90234375)"/>
<path d="M0 0 C4.875 3.75 4.875 3.75 6 6 C7.03134153 17.29403507 7.03134153 17.29403507 4 21.75 C3.01 22.86375 3.01 22.86375 2 24 C0.75334962 20.39856557 1.30711465 17.69538855 2 14 C2 12.68 2 11.36 2 10 C3 7.75 3 7.75 4 6 C3.01 6 2.02 6 1 6 C0.67 4.02 0.34 2.04 0 0 Z " fill="#E4415E" transform="translate(178,100)"/>
<path d="M0 0 C0.33 0.99 0.66 1.98 1 3 C1.66 3 2.32 3 3 3 C3 4 3 5 3 6 C3.7583727 8.26608986 4.55074599 10.51925016 5.34375 12.7734375 C6 15 6 15 6 18 C6.66 18 7.32 18 8 18 C8 18.66 8 19.32 8 20 C4.19510255 18.50521886 2.33809165 16.30557786 0 13 C-1.29721449 9.10835652 -1.13033993 6.10570774 -1 2 C-0.67 1.34 -0.34 0.68 0 0 Z " fill="#25CC86" transform="translate(130,65)"/>
<path d="M0 0 C4.91724138 4.75862069 4.91724138 4.75862069 5.25 9.75 C5.22057365 13.78140986 4.08730131 16.52116449 2 20 C1.31292445 17.50935112 1 15.62113708 1 13 C0.66226563 12.37609375 0.32453125 11.7521875 -0.0234375 11.109375 C-1.22118945 8.52223078 -1.03600648 7.04484404 -0.625 4.25 C-0.51414063 3.45078125 -0.40328125 2.6515625 -0.2890625 1.828125 C-0.19367188 1.22484375 -0.09828125 0.6215625 0 0 Z " fill="#27BF7F" transform="translate(155,61)"/>
<path d="M0 0 C0.66 0.99 1.32 1.98 2 3 C4.75308621 6.47758258 7.29449937 9.52966625 11 12 C6.25 13 6.25 13 4 13 C3.67 12.34 3.34 11.68 3 11 C2.34 11 1.68 11 1 11 C-1.03684712 6.92630576 -1.0257259 4.41062136 0 0 Z " fill="#112318" transform="translate(129,75)"/>
<path d="M0 0 C0.66 0 1.32 0 2 0 C2 1.32 2 2.64 2 4 C2.99 4 3.98 4 5 4 C5.33 5.32 5.66 6.64 6 8 C5.01 7.67 4.02 7.34 3 7 C3.78130071 9.49552484 3.78130071 9.49552484 5 12 C5.99 12.33 6.98 12.66 8 13 C8.33 14.65 8.66 16.3 9 18 C4.43891692 15.95537655 1.94181524 13.62415324 0 9 C-0.1953125 6.640625 -0.1953125 6.640625 -0.125 4.25 C-0.10695313 3.45078125 -0.08890625 2.6515625 -0.0703125 1.828125 C-0.04710938 1.22484375 -0.02390625 0.6215625 0 0 Z " fill="#D5435D" transform="translate(82,108)"/>
<path d="M0 0 C0.5625 1.9375 0.5625 1.9375 1 4 C0.67 4.33 0.34 4.66 0 5 C-0.15088074 9.52642225 -0.10424872 13.58300512 1 18 C2.32 17.34 3.64 16.68 5 16 C5.99 16.66 6.98 17.32 8 18 C7.01 18.66 6.02 19.32 5 20 C5.66 20.33 6.32 20.66 7 21 C7 21.66 7 22.32 7 23 C3.08695821 21.73090537 1.14389712 20.53743024 -1 17 C-1.9702889 14.08913331 -2.16467847 12.09776315 -2.1875 9.0625 C-2.20167969 8.20785156 -2.21585937 7.35320312 -2.23046875 6.47265625 C-1.98703556 3.86090697 -1.3178268 2.24499348 0 0 Z " fill="#E6C644" transform="translate(68,144)"/>
<path d="M0 0 C-0.639375 0.78375 -1.27875 1.5675 -1.9375 2.375 C-5.00784614 6.28271326 -5.11491986 8.19753354 -5.0625 13.125 C-5.04896484 14.76855469 -5.04896484 14.76855469 -5.03515625 16.4453125 C-5.02355469 17.28835937 -5.01195313 18.13140625 -5 19 C-5.66 19 -6.32 19 -7 19 C-7 13.72 -7 8.44 -7 3 C-6.34 3 -5.68 3 -5 3 C-5 2.01 -5 1.02 -5 0 C-5.99 0.33 -6.98 0.66 -8 1 C-8 0.34 -8 -0.32 -8 -1 C-4.59745511 -2.2151946 -3.06748874 -1.86240388 0 0 Z " fill="#382E16" transform="translate(72,141)"/>
<path d="M0 0 C-0.33 0.66 -0.66 1.32 -1 2 C-1.66 2 -2.32 2 -3 2 C-3.33 1.34 -3.66 0.68 -4 0 C-6.80980673 -0.69227032 -6.80980673 -0.69227032 -10.0625 -1.125 C-11.71958984 -1.37636719 -11.71958984 -1.37636719 -13.41015625 -1.6328125 C-14.26480469 -1.75398438 -15.11945313 -1.87515625 -16 -2 C-16 -1.01 -16 -0.02 -16 1 C-17.98 1.33 -19.96 1.66 -22 2 C-15.39861738 -5.15149784 -8.11101057 -5.82978885 0 0 Z " fill="#2DBB80" transform="translate(155,60)"/>
<path d="M0 0 C0.33 0 0.66 0 1 0 C1.04125 1.299375 1.0825 2.59875 1.125 3.9375 C1.71794017 9.68445855 4.53683849 13.52013053 8 18 C7.34 18.33 6.68 18.66 6 19 C4 17.1875 4 17.1875 2 15 C2 14.01 2 13.02 2 12 C1.34 12 0.68 12 0 12 C0.33 14.31 0.66 16.62 1 19 C0.34 18.67 -0.32 18.34 -1 18 C-0.505 9.09 -0.505 9.09 0 0 Z " fill="#132037" transform="translate(41,67)"/>
<path d="M0 0 C2.26274788 0.35355436 3.95088852 0.97544426 6 2 C6 2.66 6 3.32 6 4 C5.34 4 4.68 4 4 4 C4.33 6.31 4.66 8.62 5 11 C2.61327331 8.03716687 0.2646629 5.05729491 -2 2 C-1.34 1.34 -0.68 0.68 0 0 Z " fill="#101A25" transform="translate(114,56)"/>
<path d="M0 0 C2.97 0.33 5.94 0.66 9 1 C6.33333333 3.66666667 3.66666667 6.33333333 1 9 C1 8.01 1 7.02 1 6 C0.34 5.67 -0.32 5.34 -1 5 C-0.67 3.35 -0.34 1.7 0 0 Z " fill="#10221B" transform="translate(129,56)"/>
<path d="M0 0 C2.31 0.33 4.62 0.66 7 1 C6 3 6 3 4.4375 3.625 C0.87886814 4.17248182 -2.3938492 4.17449117 -6 4 C-6.66 3.34 -7.32 2.68 -8 2 C-5.36 1.67 -2.72 1.34 0 1 C0 0.67 0 0.34 0 0 Z " fill="#29BB7F" transform="translate(146,83)"/>
<path d="M0 0 C0.33 0 0.66 0 1 0 C1.29047722 5.61589298 1.10842092 9.09825932 -2 14 C-2.99 14.495 -2.99 14.495 -4 15 C-4.66 13.02 -5.32 11.04 -6 9 C-4.35 9 -2.7 9 -1 9 C-0.67 6.03 -0.34 3.06 0 0 Z " fill="#3C7CD9" transform="translate(118,67)"/>
<path d="M0 0 C1.50416548 3.00833096 0.60839737 5.34961578 0.0625 8.625 C-0.13214844 9.81351563 -0.32679687 11.00203125 -0.52734375 12.2265625 C-0.68332031 13.14179687 -0.83929688 14.05703125 -1 15 C-1.66 14.67 -2.32 14.34 -3 14 C-3.32374517 8.49633208 -3.53286034 4.56327794 0 0 Z " fill="#3974C7" transform="translate(45,62)"/>
<path d="M0 0 C2.71229503 -0.29642569 4.99739732 -0.38061189 7.6875 -0.25 C8.7403418 -0.22292969 8.7403418 -0.22292969 9.81445312 -0.1953125 C11.54355436 -0.14826213 13.27195205 -0.07651873 15 0 C15 0.33 15 0.66 15 1 C6.09 2.485 6.09 2.485 -3 4 C-2.01 2.68 -1.02 1.36 0 0 Z " fill="#3882EA" transform="translate(49,58)"/>
<path d="M0 0 C3.14027363 0.33645789 4.05098295 1.05236086 6.3125 3.375 C6.869375 4.24125 7.42625 5.1075 8 6 C7.67 6.99 7.34 7.98 7 9 C6.01 8.67 5.02 8.34 4 8 C4 7.01 4 6.02 4 5 C3.34 4.67 2.68 4.34 2 4 C0.875 1.9375 0.875 1.9375 0 0 Z " fill="#3D7FE3" transform="translate(110,59)"/>
<path d="M0 0 C2.64 1.65 5.28 3.3 8 5 C4.54532069 6.15155977 2.1391755 6.50630022 -1.25 5 C-2.11625 4.505 -2.11625 4.505 -3 4 C-2.67 3.34 -2.34 2.68 -2 2 C-1.34 2 -0.68 2 0 2 C0 1.34 0 0.68 0 0 Z " fill="#261415" transform="translate(85,122)"/>
<path d="M0 0 C1.65 0 3.3 0 5 0 C4.690625 0.639375 4.38125 1.27875 4.0625 1.9375 C2.68064597 5.92049104 2.3463457 9.81650849 2 14 C1.67 14 1.34 14 1 14 C0.67 9.38 0.34 4.76 0 0 Z " fill="#250F11" transform="translate(80,103)"/>
<path d="M0 0 C-2.97 3.96 -2.97 3.96 -6 8 C-7 4 -7 4 -7 1 C-5 0 -5 0 0 0 Z " fill="#0F1C28" transform="translate(50,57)"/>
<path d="M0 0 C1.33333333 2.66666667 2.66666667 5.33333333 4 8 C3.34 8 2.68 8 2 8 C1.67 7.34 1.34 6.68 1 6 C0.01 6 -0.98 6 -2 6 C-2.33 5.01 -2.66 4.02 -3 3 C-2.34 3 -1.68 3 -1 3 C-0.67 2.01 -0.34 1.02 0 0 Z " fill="#0F140F" transform="translate(132,160)"/>
<path d="M0 0 C1.32 0.66 2.64 1.32 4 2 C3.01 2.66 2.02 3.32 1 4 C1.66 4.33 2.32 4.66 3 5 C3 5.66 3 6.32 3 7 C0.5625 6.1875 0.5625 6.1875 -2 5 C-2.33 4.01 -2.66 3.02 -3 2 C-2.01 1.34 -1.02 0.68 0 0 Z " fill="#F0C839" transform="translate(72,160)"/>
<path d="M0 0 C0.66 0.99 1.32 1.98 2 3 C1.34 3 0.68 3 0 3 C0.66 4.65 1.32 6.3 2 8 C0.35 7.67 -1.3 7.34 -3 7 C-2.38722388 4.03824877 -1.74627478 2.61941217 0 0 Z " fill="#291415" transform="translate(182,120)"/>
<path d="M0 0 C-1.125 1.5 -1.125 1.5 -3 3 C-6.1875 3.1875 -6.1875 3.1875 -9 3 C-9 2.34 -9 1.68 -9 1 C-3.375 -1.125 -3.375 -1.125 0 0 Z " fill="#387EEC" transform="translate(113,83)"/>
<path d="M0 0 C0.53625 0.515625 1.0725 1.03125 1.625 1.5625 C-1.345 1.0675 -1.345 1.0675 -4.375 0.5625 C-3.715 1.8825 -3.055 3.2025 -2.375 4.5625 C-5.53615776 3.19266497 -6.3677092 2.5734362 -8.375 -0.4375 C-2.95961538 -1.79134615 -2.95961538 -1.79134615 0 0 Z " fill="#3779DA" transform="translate(54.375,81.4375)"/>
<path d="M0 0 C0.99 0.33 1.98 0.66 3 1 C2.34 2.32 1.68 3.64 1 5 C-0.98 5 -2.96 5 -5 5 C-3.35 3.35 -1.7 1.7 0 0 Z " fill="#252011" transform="translate(128,163)"/>
<path d="M0 0 C3.93809611 3.76687454 3.93809611 3.76687454 4.09765625 6.9453125 C4.06510417 8.96354167 4.03255208 10.98177083 4 13 C3.67 13 3.34 13 3 13 C3 11.35 3 9.7 3 8 C2.34 8 1.68 8 1 8 C0.67 5.36 0.34 2.72 0 0 Z " fill="#D5B13E" transform="translate(128,144)"/>
<path d="M0 0 C4.8 3.44615385 4.8 3.44615385 5.8125 6.25 C5.874375 6.8275 5.93625 7.405 6 8 C5.34 8 4.68 8 4 8 C4 7.34 4 6.68 4 6 C3.01 6 2.02 6 1 6 C0.67 4.02 0.34 2.04 0 0 Z " fill="#BE3D55" transform="translate(178,100)"/>
<path d="M0 0 C0.33 0.99 0.66 1.98 1 3 C1.66 3 2.32 3 3 3 C3 3.66 3 4.32 3 5 C2.01 5.495 2.01 5.495 1 6 C-0.13350534 8.01669827 -0.13350534 8.01669827 -1 10 C-1.125 2.25 -1.125 2.25 0 0 Z " fill="#25AE75" transform="translate(130,65)"/>
<path d="M0 0 C2 3 2 3 1.625 5.6875 C1.41875 6.450625 1.2125 7.21375 1 8 C-0.32 6.35 -1.64 4.7 -3 3 C-2.01 2.01 -1.02 1.02 0 0 Z " fill="#0F231B" transform="translate(158,57)"/>
</svg>
